<?xml version="1.0" standalone="no"?>
<!DOCTYPE svg PUBLIC "-//W3C//DTD SVG 20010904//EN"
 "http://www.w3.org/TR/2001/REC-SVG-20010904/DTD/svg10.dtd">
<svg version="1.0" xmlns="http://www.w3.org/2000/svg"
 width="512.000000pt" height="512.000000pt" viewBox="0 0 512.000000 512.000000"
 preserveAspectRatio="xMidYMid meet">

<g transform="translate(0.000000,512.000000) scale(0.100000,-0.100000)"
fill="#000000" stroke="none">
<path d="M2320 5110 c-503 -53 -981 -248 -1366 -558 -129 -104 -282 -257 -386
-386 -245 -303 -437 -708 -512 -1076 -42 -211 -51 -295 -51 -530 0 -335 43
-583 153 -884 46 -125 98 -185 183 -210 65 -20 92 -20 155 -1 66 20 117 64
150 130 38 78 35 138 -11 267 -45 126 -88 301 -106 428 -17 121 -17 416 0 540
82 592 414 1117 911 1442 563 369 1257 437 1887 186 147 -58 143 -52 78 -126
-68 -79 -85 -110 -85 -161 0 -69 33 -126 90 -156 42 -21 947 -188 985 -181 77
15 135 85 135 164 0 29 -49 185 -152 487 -127 373 -156 449 -182 476 -38 38
-64 49 -123 49 -74 0 -107 -26 -246 -192 l-18 -21 -137 66 c-233 113 -492 193
-752 232 -124 19 -478 28 -600 15z m580 -185 c268 -41 477 -107 737 -237 137
-67 189 -89 207 -84 14 3 55 41 93 83 37 42 84 95 104 116 l35 40 143 -418
c78 -229 141 -418 139 -420 -8 -7 -858 160 -858 168 0 6 28 42 63 81 109 123
117 135 117 172 0 47 -24 67 -154 130 -1003 482 -2193 157 -2812 -768 -377
-563 -474 -1281 -259 -1925 25 -73 45 -147 45 -163 0 -56 -64 -94 -117 -68
-34 16 -76 115 -127 299 -105 385 -112 781 -21 1169 102 428 328 833 640 1145
395 395 907 636 1475 695 118 12 424 4 550 -15z"/>
<path d="M1515 3731 c-51 -23 -119 -96 -135 -145 -7 -21 -10 -68 -8 -106 3
-53 10 -78 34 -116 36 -59 114 -109 183 -119 l48 -7 27 -79 c64 -195 159 -351
305 -501 l94 -98 -94 -97 c-146 -151 -254 -329 -309 -511 l-21 -70 -49 -7
c-70 -10 -148 -60 -184 -119 -24 -38 -31 -63 -34 -116 -5 -86 10 -132 62 -188
81 -88 -10 -82 1125 -82 998 0 1005 0 1048 21 51 25 118 97 134 146 6 19 9 65
7 103 -3 53 -10 78 -34 116 -36 59 -114 109 -183 119 l-48 7 -27 79 c-64 195
-159 351 -305 502 l-94 97 90 93 c49 50 111 122 137 159 64 91 136 235 170
340 l28 86 49 7 c69 10 147 60 183 119 24 38 31 63 34 116 5 86 -10 132 -62
188 -81 88 10 82 -1126 82 -952 0 -1007 -1 -1045 -19z m2042 -173 c33 -31 31
-87 -3 -119 l-26 -24 -968 0 -968 0 -26 24 c-33 31 -35 85 -4 118 l21 23 976
0 975 0 23 -22z m-257 -330 c0 -7 -18 -54 -38 -103 -69 -166 -199 -338 -330
-436 -100 -75 -112 -89 -112 -129 0 -40 12 -54 112 -129 131 -98 261 -270 330
-436 20 -49 38 -96 38 -102 0 -10 -155 -13 -740 -13 -585 0 -740 3 -740 13 0
6 18 53 38 102 69 166 199 338 330 436 100 75 112 89 112 129 0 40 -12 54
-112 129 -131 98 -261 270 -330 436 -20 49 -38 96 -38 103 0 9 155 12 740 12
585 0 740 -3 740 -12z m254 -1547 c33 -31 35 -85 4 -118 l-21 -23 -976 0 -975
0 -23 22 c-16 15 -23 33 -23 57 1 41 16 66 51 80 15 6 380 9 981 8 l956 -2 26
-24z"/>
<path d="M4634 3659 c-61 -18 -127 -71 -156 -128 -43 -81 -39 -138 21 -318 27
-81 59 -197 71 -258 176 -910 -276 -1823 -1105 -2231 -526 -259 -1122 -281
-1672 -62 -147 58 -143 52 -78 126 68 79 85 110 85 161 0 70 -33 126 -90 156
-42 22 -948 188 -985 181 -77 -15 -135 -85 -135 -164 0 -31 47 -182 152 -488
127 -372 156 -449 182 -475 38 -38 64 -49 123 -49 74 0 107 26 246 192 l18 21
137 -66 c725 -351 1546 -341 2271 28 601 306 1059 840 1271 1485 91 274 125
491 125 795 0 331 -44 580 -153 879 -30 82 -46 110 -83 148 -66 66 -159 92
-245 67z m128 -189 c42 -51 132 -361 164 -570 22 -143 25 -489 6 -630 -74
-535 -314 -1022 -687 -1395 -192 -191 -391 -334 -640 -455 -239 -118 -462
-187 -725 -227 -158 -24 -492 -24 -650 0 -274 42 -490 110 -747 238 -139 70
-189 90 -208 85 -15 -4 -66 -53 -126 -121 -56 -63 -104 -114 -105 -112 -6 5
-284 830 -282 832 8 7 858 -161 858 -168 0 -6 -28 -42 -63 -81 -109 -123 -117
-135 -117 -172 0 -47 24 -67 154 -130 1006 -483 2206 -153 2819 776 371 562
465 1278 252 1917 -47 139 -53 179 -32 205 33 42 97 46 129 8z"/>
</g>
</svg>
