<svg version="1.1" id="Layer_1" xmlns="http://www.w3.org/2000/svg" xmlns:xlink="http://www.w3.org/1999/xlink" x="0px" y="0px"
	 width="100%" viewBox="0 0 512 512" enable-background="new 0 0 512 512" xml:space="preserve">
<path fill="#FEFEFE" opacity="1.000000" stroke="none" 
	d="
M250.000000,513.000000 
	C167.044739,513.000000 84.089462,513.000000 1.067099,513.000000 
	C1.067099,342.333344 1.067099,171.666672 1.067099,1.000000 
	C17.747290,1.000000 34.404987,1.000000 51.470402,1.356532 
	C44.915585,4.296555 40.924198,9.775799 41.255611,16.295300 
	C41.594364,22.959190 46.636467,29.409172 53.746769,30.799019 
	C70.067703,33.989258 86.469658,36.775311 102.868103,39.551918 
	C107.250412,40.293930 111.644341,36.197567 110.526672,32.044548 
	C109.841988,29.500364 107.561264,26.721970 105.230736,25.392681 
	C90.607040,17.051601 75.767883,9.088281 61.000000,1.000000 
	C168.020889,1.000000 275.041779,1.000000 382.395935,1.356623 
	C380.968781,2.174529 379.041412,2.319316 377.474030,3.146352 
	C362.789612,10.894553 348.162537,18.751610 333.529358,26.596678 
	C330.035645,28.469715 329.076019,31.548868 330.279388,35.073025 
	C331.412476,38.391464 334.011536,40.298042 337.637573,39.732250 
	C354.071594,37.167950 370.516846,34.652248 386.893280,31.753231 
	C393.559113,30.573214 397.569336,25.812788 398.448883,19.582205 
	C399.331207,13.332351 396.061371,6.324306 390.661865,3.464546 
	C388.587921,2.366106 386.229034,1.805605 384.000000,0.999999 
	C426.978271,1.000000 469.956543,1.000000 512.967407,1.000000 
	C512.967407,171.558716 512.967407,342.117432 512.967407,513.000000 
	C438.312744,513.000000 363.625031,513.000000 288.638977,512.592651 
	C306.162323,512.136719 323.984009,512.088135 341.805664,512.039490 
	C365.166992,511.975769 388.437225,510.913788 411.190399,504.982178 
	C444.217133,496.372223 469.527771,478.153198 483.551147,446.178223 
	C485.067841,442.720032 486.113159,438.944275 486.676453,435.210144 
	C487.233795,431.515717 485.806213,428.431610 481.934998,426.808228 
	C478.053406,425.180511 474.969055,426.300171 472.680969,429.382690 
	C470.111450,432.844330 467.798309,436.522369 465.645172,440.262604 
	C454.789734,459.120056 438.690918,471.121155 417.898132,477.040009 
	C392.712952,484.209229 366.931793,484.267456 341.070099,483.520111 
	C323.589020,483.014954 306.099823,482.789856 288.619476,482.264709 
	C272.007843,481.765717 255.231018,482.336975 238.828369,480.162842 
	C194.786926,474.325195 155.408051,456.185547 118.853394,431.524872 
	C88.431358,411.001465 62.320126,385.712311 36.987709,359.278961 
	C23.102840,344.790680 34.498058,322.447418 48.678905,318.834473 
	C54.028805,317.471436 58.819820,318.063507 63.365379,321.269440 
	C69.212105,325.393036 75.059097,329.530823 81.083038,333.385834 
	C98.078026,344.261749 115.604729,354.046997 135.548599,358.558105 
	C161.230377,364.367096 179.548141,354.732880 189.284515,330.207825 
	C190.751114,326.513580 191.955460,322.688538 192.952179,318.838837 
	C198.355957,297.967682 199.223755,276.606995 197.859344,255.320847 
	C196.113754,228.087677 193.024887,200.939438 190.412888,173.764404 
	C190.091507,170.420837 190.111237,167.773453 192.277603,164.585968 
	C194.402344,161.459686 195.301468,156.851074 195.166641,152.947311 
	C194.465347,132.641663 192.796692,112.362579 192.394073,92.055832 
	C192.117188,78.091354 193.178268,64.026443 198.064484,50.714672 
	C199.752350,46.116318 202.080566,41.448112 205.216309,37.742733 
	C214.999756,26.182076 234.242371,29.329618 239.730515,43.228340 
	C242.164566,49.392593 244.273956,55.735168 245.912720,62.154560 
	C252.596649,88.336624 251.442871,115.003746 250.554794,141.661560 
	C249.911407,160.974106 249.092209,180.305191 249.357788,199.614151 
	C249.507935,210.532715 251.347122,221.478836 253.094070,232.304672 
	C254.067078,238.334503 259.580994,241.156601 265.665070,239.909241 
	C271.373474,238.738876 274.886475,234.121674 274.165161,228.269913 
	C273.822388,225.489212 273.074860,222.710983 272.147461,220.058624 
	C269.320465,211.973267 272.394836,205.747528 278.244629,200.506302 
	C296.409973,184.230698 326.622162,195.452988 331.154816,215.198532 
	C331.858582,218.264343 332.881287,221.275070 333.982391,224.227020 
	C335.462280,228.194504 338.313873,230.453659 342.708618,230.376862 
	C347.217621,230.298065 349.739197,227.665955 350.884552,223.616013 
	C352.059509,219.461472 352.852875,215.198364 354.046844,211.050018 
	C356.116974,203.857544 360.902466,199.632980 368.247620,197.899094 
	C388.849030,193.035934 406.105469,208.382187 405.199768,225.575287 
	C404.878662,231.670624 409.421661,235.735397 415.494446,236.303467 
	C421.751282,236.888779 425.202850,234.370834 427.910095,227.246307 
	C432.368073,215.514465 444.741821,210.966843 455.497681,217.193939 
	C464.453766,222.379074 469.817078,230.401215 473.023376,240.017929 
	C477.471344,253.358734 477.873810,267.163422 477.372650,281.015076 
	C476.662109,300.653656 475.484283,320.278015 474.993927,339.920624 
	C474.776825,348.617554 481.018829,354.119843 489.641388,354.129730 
	C498.470032,354.139862 504.808472,348.399414 504.866211,339.770813 
	C505.023407,316.276855 505.359344,292.773071 504.861877,269.289337 
	C504.496155,252.022583 500.738098,235.337006 492.785767,219.773956 
	C479.608490,193.985489 446.393951,179.883087 420.241699,198.724350 
	C410.545319,185.473373 397.445068,178.127670 381.067993,176.891418 
	C364.547852,175.644363 350.639618,180.789108 340.276184,194.630219 
	C330.622375,184.284515 318.866730,178.479950 305.125610,177.150833 
	C291.359955,175.819321 278.901031,179.345322 267.822876,189.585159 
	C267.822876,181.075607 267.656464,173.618271 267.853699,166.170578 
	C268.475555,142.686569 269.731781,119.207619 269.799622,95.723976 
	C269.867920,72.085823 266.325531,48.945484 255.981689,27.307365 
	C254.989578,25.231998 254.035568,22.911510 252.415909,21.398415 
	C237.471909,7.437501 203.001846,0.530689 185.299118,24.789438 
	C176.641022,36.653942 171.480728,49.764198 169.051529,64.016876 
	C164.095871,93.092979 165.210068,122.470734 165.325516,151.774628 
	C165.349701,157.913864 166.530945,164.050003 171.874634,168.435013 
	C172.785767,169.182678 172.969391,171.069839 173.107193,172.468185 
	C174.658920,188.213791 176.269211,203.955475 177.602524,219.720306 
	C179.722336,244.784775 182.325577,269.853210 179.921814,295.050995 
	C178.924133,305.509216 177.251663,315.854584 172.219772,325.306641 
	C165.839752,337.291107 155.293991,342.736053 141.949356,340.357574 
	C136.102921,339.315491 130.227921,337.769592 124.731850,335.547363 
	C106.522980,328.185028 90.927711,316.513397 75.073586,305.180695 
	C70.029816,301.575348 63.512329,299.060883 57.357159,298.145477 
	C27.139099,293.651489 3.594557,326.775085 9.574392,354.666382 
	C11.644263,364.320740 18.023523,370.997314 24.041719,378.119507 
	C50.847507,409.842621 80.712784,438.207886 115.210754,461.490692 
	C151.908401,486.257996 191.548813,503.856354 235.643829,510.488647 
	C240.446472,511.210999 245.215424,512.157471 250.000000,513.000000 
M352.156158,95.356468 
	C347.187744,94.842537 342.218048,94.340889 337.251373,93.810722 
	C333.412476,93.400940 330.765228,94.898392 329.573853,98.632774 
	C328.366821,102.416229 329.842865,105.125610 333.181122,106.930290 
	C348.089294,114.989777 362.953033,123.135612 377.985565,130.956665 
	C380.465820,132.247070 383.792053,132.776047 386.580139,132.439087 
	C393.415375,131.613007 398.476562,125.397522 398.981476,118.167755 
	C399.490326,110.881149 395.793701,104.814445 388.623932,103.075333 
	C376.840729,100.217201 364.895142,98.028511 352.156158,95.356468 
M80.148712,122.612350 
	C88.261772,118.103096 96.312309,113.475716 104.514549,109.135002 
	C108.545143,107.001976 110.221405,103.981949 108.730820,99.775253 
	C107.365059,95.920815 104.207878,94.916199 100.247459,95.531990 
	C86.965843,97.597107 73.659653,99.503769 60.373569,101.540909 
	C56.615376,102.117142 52.706207,102.430069 49.194546,103.742249 
	C41.947445,106.450241 38.921951,114.732460 41.846973,122.490158 
	C44.926357,130.657257 52.581734,134.747650 60.582401,131.740601 
	C67.070946,129.301880 73.205513,125.921364 80.148712,122.612350 
z"/>
<path fill="#030303" opacity="1.000000" stroke="none" 
	d="
M250.428467,513.000000 
	C245.215424,512.157471 240.446472,511.210999 235.643829,510.488647 
	C191.548813,503.856354 151.908401,486.257996 115.210754,461.490692 
	C80.712784,438.207886 50.847507,409.842621 24.041719,378.119507 
	C18.023523,370.997314 11.644263,364.320740 9.574392,354.666382 
	C3.594557,326.775085 27.139099,293.651489 57.357159,298.145477 
	C63.512329,299.060883 70.029816,301.575348 75.073586,305.180695 
	C90.927711,316.513397 106.522980,328.185028 124.731850,335.547363 
	C130.227921,337.769592 136.102921,339.315491 141.949356,340.357574 
	C155.293991,342.736053 165.839752,337.291107 172.219772,325.306641 
	C177.251663,315.854584 178.924133,305.509216 179.921814,295.050995 
	C182.325577,269.853210 179.722336,244.784775 177.602524,219.720306 
	C176.269211,203.955475 174.658920,188.213791 173.107193,172.468185 
	C172.969391,171.069839 172.785767,169.182678 171.874634,168.435013 
	C166.530945,164.050003 165.349701,157.913864 165.325516,151.774628 
	C165.210068,122.470734 164.095871,93.092979 169.051529,64.016876 
	C171.480728,49.764198 176.641022,36.653942 185.299118,24.789438 
	C203.001846,0.530689 237.471909,7.437501 252.415909,21.398415 
	C254.035568,22.911510 254.989578,25.231998 255.981689,27.307365 
	C266.325531,48.945484 269.867920,72.085823 269.799622,95.723976 
	C269.731781,119.207619 268.475555,142.686569 267.853699,166.170578 
	C267.656464,173.618271 267.822876,181.075607 267.822876,189.585159 
	C278.901031,179.345322 291.359955,175.819321 305.125610,177.150833 
	C318.866730,178.479950 330.622375,184.284515 340.276184,194.630219 
	C350.639618,180.789108 364.547852,175.644363 381.067993,176.891418 
	C397.445068,178.127670 410.545319,185.473373 420.241699,198.724350 
	C446.393951,179.883087 479.608490,193.985489 492.785767,219.773956 
	C500.738098,235.337006 504.496155,252.022583 504.861877,269.289337 
	C505.359344,292.773071 505.023407,316.276855 504.866211,339.770813 
	C504.808472,348.399414 498.470032,354.139862 489.641388,354.129730 
	C481.018829,354.119843 474.776825,348.617554 474.993927,339.920624 
	C475.484283,320.278015 476.662109,300.653656 477.372650,281.015076 
	C477.873810,267.163422 477.471344,253.358734 473.023376,240.017929 
	C469.817078,230.401215 464.453766,222.379074 455.497681,217.193939 
	C444.741821,210.966843 432.368073,215.514465 427.910095,227.246307 
	C425.202850,234.370834 421.751282,236.888779 415.494446,236.303467 
	C409.421661,235.735397 404.878662,231.670624 405.199768,225.575287 
	C406.105469,208.382187 388.849030,193.035934 368.247620,197.899094 
	C360.902466,199.632980 356.116974,203.857544 354.046844,211.050018 
	C352.852875,215.198364 352.059509,219.461472 350.884552,223.616013 
	C349.739197,227.665955 347.217621,230.298065 342.708618,230.376862 
	C338.313873,230.453659 335.462280,228.194504 333.982391,224.227020 
	C332.881287,221.275070 331.858582,218.264343 331.154816,215.198532 
	C326.622162,195.452988 296.409973,184.230698 278.244629,200.506302 
	C272.394836,205.747528 269.320465,211.973267 272.147461,220.058624 
	C273.074860,222.710983 273.822388,225.489212 274.165161,228.269913 
	C274.886475,234.121674 271.373474,238.738876 265.665070,239.909241 
	C259.580994,241.156601 254.067078,238.334503 253.094070,232.304672 
	C251.347122,221.478836 249.507935,210.532715 249.357788,199.614151 
	C249.092209,180.305191 249.911407,160.974106 250.554794,141.661560 
	C251.442871,115.003746 252.596649,88.336624 245.912720,62.154560 
	C244.273956,55.735168 242.164566,49.392593 239.730515,43.228340 
	C234.242371,29.329618 214.999756,26.182076 205.216309,37.742733 
	C202.080566,41.448112 199.752350,46.116318 198.064484,50.714672 
	C193.178268,64.026443 192.117188,78.091354 192.394073,92.055832 
	C192.796692,112.362579 194.465347,132.641663 195.166641,152.947311 
	C195.301468,156.851074 194.402344,161.459686 192.277603,164.585968 
	C190.111237,167.773453 190.091507,170.420837 190.412888,173.764404 
	C193.024887,200.939438 196.113754,228.087677 197.859344,255.320847 
	C199.223755,276.606995 198.355957,297.967682 192.952179,318.838837 
	C191.955460,322.688538 190.751114,326.513580 189.284515,330.207825 
	C179.548141,354.732880 161.230377,364.367096 135.548599,358.558105 
	C115.604729,354.046997 98.078026,344.261749 81.083038,333.385834 
	C75.059097,329.530823 69.212105,325.393036 63.365379,321.269440 
	C58.819820,318.063507 54.028805,317.471436 48.678905,318.834473 
	C34.498058,322.447418 23.102840,344.790680 36.987709,359.278961 
	C62.320126,385.712311 88.431358,411.001465 118.853394,431.524872 
	C155.408051,456.185547 194.786926,474.325195 238.828369,480.162842 
	C255.231018,482.336975 272.007843,481.765717 288.619476,482.264709 
	C306.099823,482.789856 323.589020,483.014954 341.070099,483.520111 
	C366.931793,484.267456 392.712952,484.209229 417.898132,477.040009 
	C438.690918,471.121155 454.789734,459.120056 465.645172,440.262604 
	C467.798309,436.522369 470.111450,432.844330 472.680969,429.382690 
	C474.969055,426.300171 478.053406,425.180511 481.934998,426.808228 
	C485.806213,428.431610 487.233795,431.515717 486.676453,435.210144 
	C486.113159,438.944275 485.067841,442.720032 483.551147,446.178223 
	C469.527771,478.153198 444.217133,496.372223 411.190399,504.982178 
	C388.437225,510.913788 365.166992,511.975769 341.805664,512.039490 
	C323.984009,512.088135 306.162323,512.136719 288.170349,512.592651 
	C286.285645,513.000000 284.571289,513.000000 282.237488,512.675659 
	C280.125031,512.270142 278.632019,512.188965 276.664429,512.071899 
	C271.398682,512.069519 266.607483,512.102966 261.423889,512.121399 
	C259.354370,512.404236 257.677185,512.702087 256.000000,513.000000 
	C254.285645,513.000000 252.571289,513.000000 250.428467,513.000000 
z"/>
<path fill="#030303" opacity="1.000000" stroke="none" 
	d="
M60.550018,1.000000 
	C75.767883,9.088281 90.607040,17.051601 105.230736,25.392681 
	C107.561264,26.721970 109.841988,29.500364 110.526672,32.044548 
	C111.644341,36.197567 107.250412,40.293930 102.868103,39.551918 
	C86.469658,36.775311 70.067703,33.989258 53.746769,30.799019 
	C46.636467,29.409172 41.594364,22.959190 41.255611,16.295300 
	C40.924198,9.775799 44.915585,4.296555 51.939060,1.356532 
	C54.700012,1.000000 57.400028,1.000000 60.550018,1.000000 
z"/>
<path fill="#030303" opacity="1.000000" stroke="none" 
	d="
M383.750000,0.999999 
	C386.229034,1.805605 388.587921,2.366106 390.661865,3.464546 
	C396.061371,6.324306 399.331207,13.332351 398.448883,19.582205 
	C397.569336,25.812788 393.559113,30.573214 386.893280,31.753231 
	C370.516846,34.652248 354.071594,37.167950 337.637573,39.732250 
	C334.011536,40.298042 331.412476,38.391464 330.279388,35.073025 
	C329.076019,31.548868 330.035645,28.469715 333.529358,26.596678 
	C348.162537,18.751610 362.789612,10.894553 377.474030,3.146352 
	C379.041412,2.319316 380.968781,2.174529 382.864563,1.356623 
	C383.000000,1.000000 383.500000,1.000000 383.750000,0.999999 
z"/>
<path fill="#151515" opacity="1.000000" stroke="none" 
	d="
M261.816254,512.136475 
	C266.607483,512.102966 271.398682,512.069519 276.619141,512.292969 
	C277.048401,512.549927 277.000000,513.000000 277.000000,513.000000 
	C272.310760,513.000000 267.621490,513.000000 262.429321,512.782166 
	C261.926422,512.564331 261.816254,512.136475 261.816254,512.136475 
z"/>
<path fill="#4E4E4E" opacity="1.000000" stroke="none" 
	d="
M261.423889,512.121399 
	C261.816254,512.136475 261.926422,512.564331 261.963196,512.782166 
	C260.285645,513.000000 258.571289,513.000000 256.428467,513.000000 
	C257.677185,512.702087 259.354370,512.404236 261.423889,512.121399 
z"/>
<path fill="#444444" opacity="1.000000" stroke="none" 
	d="
M277.416656,513.000000 
	C277.000000,513.000000 277.048401,512.549927 277.093689,512.328857 
	C278.632019,512.188965 280.125031,512.270142 281.809021,512.675659 
	C280.611115,513.000000 279.222198,513.000000 277.416656,513.000000 
z"/>
<path fill="#030303" opacity="1.000000" stroke="none" 
	d="
M352.587097,95.457016 
	C364.895142,98.028511 376.840729,100.217201 388.623932,103.075333 
	C395.793701,104.814445 399.490326,110.881149 398.981476,118.167755 
	C398.476562,125.397522 393.415375,131.613007 386.580139,132.439087 
	C383.792053,132.776047 380.465820,132.247070 377.985565,130.956665 
	C362.953033,123.135612 348.089294,114.989777 333.181122,106.930290 
	C329.842865,105.125610 328.366821,102.416229 329.573853,98.632774 
	C330.765228,94.898392 333.412476,93.400940 337.251373,93.810722 
	C342.218048,94.340889 347.187744,94.842537 352.587097,95.457016 
z"/>
<path fill="#040404" opacity="1.000000" stroke="none" 
	d="
M79.822899,122.785461 
	C73.205513,125.921364 67.070946,129.301880 60.582401,131.740601 
	C52.581734,134.747650 44.926357,130.657257 41.846973,122.490158 
	C38.921951,114.732460 41.947445,106.450241 49.194546,103.742249 
	C52.706207,102.430069 56.615376,102.117142 60.373569,101.540909 
	C73.659653,99.503769 86.965843,97.597107 100.247459,95.531990 
	C104.207878,94.916199 107.365059,95.920815 108.730820,99.775253 
	C110.221405,103.981949 108.545143,107.001976 104.514549,109.135002 
	C96.312309,113.475716 88.261772,118.103096 79.822899,122.785461 
z"/>
</svg>